<?xml version="1.0" encoding="UTF-8" standalone="no"?>
<svg width="32px" height="32px" viewBox="0 0 32 32" version="1.1" xmlns="http://www.w3.org/2000/svg" xmlns:xlink="http://www.w3.org/1999/xlink" xmlns:sketch="http://www.bohemiancoding.com/sketch/ns">
    <!-- Generator: Sketch 3.3.2 (12043) - http://www.bohemiancoding.com/sketch -->
    <title>fa-check-circle</title>
    <desc>Created with Sketch.</desc>
    <defs></defs>
    <g id="Page-1" stroke="none" stroke-width="1" fill="none" fill-rule="evenodd" sketch:type="MSPage">
        <g id="iPhone-5/5S/5C" sketch:type="MSArtboardGroup" transform="translate(-215.000000, -481.000000)" fill="#FFFFFF">
            <g id="Group-Copy-+-Line-+-Rectangle-7" sketch:type="MSLayerGroup" transform="translate(0.000000, 199.000000)">
                <g id="fa-check-circle" transform="translate(215.000000, 282.000000)" sketch:type="MSShapeGroup">
                    <path d="M8.20247273,29.408 C10.5368727,30.7728 13.1224727,31.456 15.9240727,31.456 C18.7240727,31.456 21.3096727,30.7728 23.6440727,29.408 C26.0152727,28.008 27.8824727,26.1408 29.2472727,23.8064 C30.6472727,21.4352 31.3304727,18.8864 31.3304727,16.0848 C31.3304727,13.2832 30.6472727,10.6976 29.2472727,8.3632 C27.8824727,5.9936 26.0152727,4.1248 23.6440727,2.7616 C21.3096727,1.36 18.7240727,0.6784 15.9240727,0.6784 C13.1224727,0.6784 10.5368727,1.36 8.20247273,2.7616 C5.83127273,4.1248 3.96407273,5.9936 2.59927273,8.3632 C1.19927273,10.6976 0.516072727,13.2832 0.516072727,16.0848 C0.516072727,18.8864 1.19927273,21.4352 2.59927273,23.8064 C3.96407273,26.1408 5.83127273,28.008 8.20247273,29.408 L8.20247273,29.408 Z M5.94007273,15.5456 L7.77047273,13.7504 C8.02327273,13.4992 8.30967273,13.3552 8.66967273,13.3552 C9.02807273,13.3552 9.31607273,13.4992 9.56727273,13.7504 L14.0920727,18.2752 L22.2808727,10.1232 C22.5320727,9.872 22.8184727,9.728 23.1784727,9.728 C23.5368727,9.728 23.8248727,9.872 24.0760727,10.1232 L25.9080727,11.9184 C26.1592727,12.1696 26.2664727,12.4576 26.2664727,12.816 C26.2664727,13.2112 26.1592727,13.4992 25.9080727,13.7504 L15.0248727,24.5968 C14.7736727,24.848 14.4504727,24.9904 14.0920727,24.9904 C13.7688727,24.9904 13.4456727,24.848 13.1944727,24.5968 L5.94007273,17.3776 C5.68887273,17.1264 5.58007273,16.8032 5.58007273,16.4432 C5.58007273,16.0848 5.68887273,15.7616 5.94007273,15.5456 L5.94007273,15.5456 Z" id="Fill-123"></path>
                </g>
            </g>
        </g>
    </g>
</svg>