<?xml version="1.0" encoding="UTF-8" standalone="no"?>
<svg width="32px" height="32px" viewBox="0 0 32 32" version="1.1" xmlns="http://www.w3.org/2000/svg" xmlns:xlink="http://www.w3.org/1999/xlink" xmlns:sketch="http://www.bohemiancoding.com/sketch/ns">
    <!-- Generator: Sketch 3.3.2 (12043) - http://www.bohemiancoding.com/sketch -->
    <title>fa-exclamation-circle</title>
    <desc>Created with Sketch.</desc>
    <defs></defs>
    <g id="Page-1" stroke="none" stroke-width="1" fill="none" fill-rule="evenodd" sketch:type="MSPage">
        <g id="iPhone-5/5S/5C" sketch:type="MSArtboardGroup" transform="translate(-213.000000, -360.000000)" fill="#FFFFFF">
            <g id="Group-Copy-+-Line-+-Rectangle-7" sketch:type="MSLayerGroup" transform="translate(0.000000, 199.000000)">
                <g id="fa-exclamation-circle" transform="translate(213.000000, 161.000000)" sketch:type="MSShapeGroup">
                    <path d="M7.79669895,29.09184 C10.1928589,30.4710063 12.8056758,31.1613979 15.6367663,31.1613979 C18.4306695,31.1613979 21.0434863,30.4710063 23.4380295,29.09184 C25.7970021,27.6771032 27.6838568,25.7902484 29.1002105,23.4312758 C30.4793768,21.0351158 31.1681516,18.4594863 31.1681516,15.6283958 C31.1681516,12.7973053 30.4793768,10.1844884 29.1002105,7.82551579 C27.6838568,5.43097263 25.7970021,3.54250105 23.4380295,2.12776421 C21.0434863,0.748597895 18.4306695,0.0598231579 15.6367663,0.0598231579 C12.8056758,0.0598231579 10.1928589,0.748597895 7.79669895,2.12776421 C5.43772632,3.54250105 3.55087158,5.43097263 2.13613474,7.82551579 C0.756968421,10.1844884 0.0665768421,12.7973053 0.0665768421,15.6283958 C0.0665768421,18.4594863 0.756968421,21.0351158 2.13613474,23.4312758 C3.55087158,25.7902484 5.43772632,27.6771032 7.79669895,29.09184 L7.79669895,29.09184 Z M12.9140042,5.39378526 C13.05952,5.28545684 13.2050358,5.24826947 13.3861221,5.24826947 L17.8502232,5.24826947 C18.0313095,5.24826947 18.2123958,5.28545684 18.3223411,5.39378526 C18.46624,5.50373053 18.5389979,5.61205895 18.5389979,5.79314526 L18.1768253,18.3495411 C18.1768253,18.4950568 18.1040674,18.6033853 17.9585516,18.7133305 C17.8130358,18.8216589 17.6691368,18.8588463 17.4864337,18.8588463 L13.7482947,18.8588463 C13.5316379,18.8588463 13.3861221,18.8216589 13.2406063,18.7133305 C13.1322779,18.6033853 13.05952,18.4950568 13.05952,18.3495411 L12.6957305,5.79314526 C12.6957305,5.61205895 12.7684884,5.50373053 12.9140042,5.39378526 L12.9140042,5.39378526 Z M13.0239495,21.4716632 C13.0239495,21.28896 13.0950905,21.1450611 13.2406063,21.0351158 C13.3489347,20.8896 13.5316379,20.8184589 13.7127242,20.8184589 L17.5963789,20.8184589 C17.7774653,20.8184589 17.9229811,20.8896 18.0313095,20.9995453 C18.1396379,21.1450611 18.2123958,21.28896 18.2123958,21.4716632 L18.2123958,25.3181305 C18.2123958,25.4992168 18.1396379,25.6447326 18.0313095,25.7902484 C17.9229811,25.8985768 17.7774653,25.9713347 17.5963789,25.9713347 L13.7127242,25.9713347 C13.5316379,25.9713347 13.3489347,25.8985768 13.2406063,25.7530611 C13.0950905,25.6447326 13.0239495,25.4636463 13.0239495,25.3181305 L13.0239495,21.4716632 L13.0239495,21.4716632 Z" id="Fill-199"></path>
                </g>
            </g>
        </g>
    </g>
</svg>