<?xml version="1.0" encoding="UTF-8" standalone="no"?>
<svg width="70px" height="62px" viewBox="0 0 70 62" version="1.1" xmlns="http://www.w3.org/2000/svg" xmlns:xlink="http://www.w3.org/1999/xlink" xmlns:sketch="http://www.bohemiancoding.com/sketch/ns">
    <!-- Generator: Sketch 3.3.2 (12043) - http://www.bohemiancoding.com/sketch -->
    <title>Fill 1 + snowflake</title>
    <desc>Created with Sketch.</desc>
    <defs></defs>
    <g id="Page-1" stroke="none" stroke-width="1" fill="none" fill-rule="evenodd" sketch:type="MSPage">
        <g id="iPhone-5/5S/5C" sketch:type="MSArtboardGroup" transform="translate(-190.000000, -226.000000)">
            <g id="Group-Copy-+-Line-+-Rectangle-7" sketch:type="MSLayerGroup" transform="translate(0.000000, 199.000000)">
                <g id="Fill-1-+-snowflake" transform="translate(189.272727, 28.000000)" sketch:type="MSShapeGroup">
                    <path d="M50.1257093,53.1099843 C49.5738923,54.065759 48.227926,54.8405675 47.1282498,54.8405675 L23.6465524,54.8405675 C22.5429182,54.8405675 21.1989309,54.0623314 20.6490928,53.1099843 L8.90824409,32.7742472 C8.35642703,31.8184725 8.35840597,30.2654278 8.90824409,29.3130807 L20.6490928,8.97734368 C21.2009099,8.02156893 22.5468761,7.24676041 23.6465524,7.24676041 L47.1282498,7.24676041 C48.2318839,7.24676041 49.5758712,8.02499655 50.1257093,8.97734368 L61.8665581,29.3130807 C62.4183751,30.2688555 62.4163962,31.8219001 61.8665581,32.7742472 L50.1257093,53.1099843 Z M33.7972686,13.7526574 L33.7972686,18.0902062 L30.5382815,16.2060522 L28.8838212,19.0622432 L33.7972686,21.9084475 L33.7972686,28.3099105 L28.2779625,25.1208301 L28.2679758,19.4184349 L24.9657131,19.4250926 L24.9723709,23.2133739 L21.204063,21.0362773 L19.5529316,23.8957972 L23.3112528,26.066236 L20.0489368,27.9437322 L21.6934104,30.8065809 L26.6168445,27.9736922 L32.1561239,31.1727593 L26.6368178,34.3585107 L21.6934104,31.5156353 L20.0489368,34.3784841 L23.3312262,36.2692958 L19.5629183,38.4430636 L21.2140496,41.3025834 L24.9723709,39.1321446 L24.9657131,42.8971236 L28.2679758,42.9037814 L28.2779625,37.2246884 L33.817242,34.0289502 L33.817242,40.4004532 L28.8838212,43.259973 L30.5382815,46.116164 L33.817242,44.2186945 L33.817242,48.5695588 L37.1195047,48.5695588 L37.1195047,44.2320101 L40.3784919,46.116164 L42.0329522,43.259973 L37.1195047,40.4137688 L37.1195047,34.0123058 L42.6388108,37.2013861 L42.6487975,42.9037814 L45.9510603,42.8971236 L45.9444025,39.1088423 L49.7127104,41.285939 L51.3638418,38.4264191 L47.6055206,36.2559803 L50.8678366,34.3784841 L49.223363,31.5156353 L44.3032578,34.348524 L38.7606494,31.149457 L44.2832844,27.9603766 L49.223363,30.8065809 L50.8678366,27.9437322 L47.5855472,26.0529204 L51.3538551,23.8791527 L49.7027237,21.0196328 L45.9444025,23.1900717 L45.9510603,19.4250926 L42.6487975,19.4184349 L42.6388108,25.0975279 L37.0995314,28.293266 L37.0995314,21.9217631 L42.0329522,19.0622432 L40.3784919,16.2060522 L37.0995314,18.1035218 L37.0995314,13.7526574 L33.7972686,13.7526574 Z" id="Fill-1" fill="#FFFFFF"></path>
                    <path d="M52.6366836,59.9202838 L18.1381186,59.9202838 L0.88883603,30.043664 L18.1381186,0.167044177 L52.6366836,0.167044177 L69.8859661,30.043664 L52.6366836,59.9202838 Z" id="Path-Copy" stroke="#FFFFFF" stroke-dasharray="4,4"></path>
                </g>
            </g>
        </g>
    </g>
</svg>