<?xml version="1.0" encoding="UTF-8" standalone="no"?>
<svg width="4px" height="359px" viewBox="0 0 4 359" version="1.1" xmlns="http://www.w3.org/2000/svg" xmlns:xlink="http://www.w3.org/1999/xlink" xmlns:sketch="http://www.bohemiancoding.com/sketch/ns">
    <!-- Generator: Sketch 3.3.2 (12043) - http://www.bohemiancoding.com/sketch -->
    <title>Group</title>
    <desc>Created with Sketch.</desc>
    <defs></defs>
    <g id="Page-1" stroke="none" stroke-width="1" fill="none" fill-rule="evenodd" sketch:type="MSPage">
        <g id="iPhone-5/5S/5C" sketch:type="MSArtboardGroup" transform="translate(-283.000000, -200.000000)" stroke-linecap="square" stroke="#FFFFFF">
            <g id="Group-Copy-+-Line-+-Rectangle-7" sketch:type="MSLayerGroup" transform="translate(0.000000, 199.000000)">
                <g id="Group-Copy" transform="translate(166.000000, 185.000000) rotate(-90.000000) translate(-166.000000, -185.000000) translate(-19.000000, 49.000000)" sketch:type="MSShapeGroup">
                    <g id="Group" transform="translate(10.370687, 253.500000)">
                        <path d="M155.547297,0.23125 L155.547297,1.77291667" id="Line-20"></path>
                        <path d="M146.656883,0.23125 L146.656883,1.77291667" id="Line-19"></path>
                        <path d="M139.036527,0.23125 L139.036527,1.77291667" id="Line-18"></path>
                        <path d="M130.146113,0.23125 L130.146113,1.77291667" id="Line-17"></path>
                        <path d="M122.525758,0.23125 L122.525758,1.77291667" id="Line-16"></path>
                        <path d="M113.635343,0.23125 L113.635343,1.77291667" id="Line-15"></path>
                        <path d="M106.014988,0.23125 L106.014988,1.77291667" id="Line-14"></path>
                        <path d="M97.124574,0.23125 L97.124574,1.77291667" id="Line-13"></path>
                        <path d="M89.5042188,0.23125 L89.5042188,1.77291667" id="Line-12"></path>
                        <path d="M80.6138045,0.23125 L80.6138045,1.77291667" id="Line-11"></path>
                        <path d="M72.9934493,0.23125 L72.9934493,1.77291667" id="Line-10"></path>
                        <path d="M64.103035,0.23125 L64.103035,1.77291667" id="Line-9"></path>
                        <path d="M56.4826798,0.23125 L56.4826798,1.77291667" id="Line-8"></path>
                        <path d="M47.5922655,0.23125 L47.5922655,1.77291667" id="Line-7"></path>
                        <path d="M39.9719103,0.23125 L39.9719103,1.77291667" id="Line-6"></path>
                        <path d="M31.081496,0.23125 L31.081496,1.77291667" id="Line-5"></path>
                        <path d="M22.1910816,0.23125 L22.1910816,1.77291667" id="Line-4"></path>
                        <path d="M14.5707264,0.23125 L14.5707264,1.77291667" id="Line-3"></path>
                        <path d="M5.6803121,0.23125 L5.6803121,1.77291667" id="Line-2"></path>
                        <path d="M305.414282,0.23125 L305.414282,1.77291667" id="Line-20"></path>
                        <path d="M296.523867,0.23125 L296.523867,1.77291667" id="Line-19"></path>
                        <path d="M288.903512,0.23125 L288.903512,1.77291667" id="Line-18"></path>
                        <path d="M280.013098,0.23125 L280.013098,1.77291667" id="Line-17"></path>
                        <path d="M272.392743,0.23125 L272.392743,1.77291667" id="Line-16"></path>
                        <path d="M263.502328,0.23125 L263.502328,1.77291667" id="Line-15"></path>
                        <path d="M255.881973,0.23125 L255.881973,1.77291667" id="Line-14"></path>
                        <path d="M354.94659,0.23125 L354.94659,1.77291667" id="Line-20-Copy"></path>
                        <path d="M346.056176,0.23125 L346.056176,1.77291667" id="Line-19-Copy"></path>
                        <path d="M338.435821,0.23125 L338.435821,1.77291667" id="Line-18-Copy"></path>
                        <path d="M329.545406,0.23125 L329.545406,1.77291667" id="Line-17-Copy"></path>
                        <path d="M321.925051,0.23125 L321.925051,1.77291667" id="Line-16-Copy"></path>
                        <path d="M313.034637,0.23125 L313.034637,1.77291667" id="Line-15-Copy"></path>
                        <path d="M305.414282,0.23125 L305.414282,1.77291667" id="Line-14-Copy"></path>
                        <path d="M246.991559,0.23125 L246.991559,1.77291667" id="Line-13"></path>
                        <path d="M239.371204,0.23125 L239.371204,1.77291667" id="Line-12"></path>
                        <path d="M230.480789,0.23125 L230.480789,1.77291667" id="Line-11"></path>
                        <path d="M222.860434,0.23125 L222.860434,1.77291667" id="Line-10"></path>
                        <path d="M213.97002,0.23125 L213.97002,1.77291667" id="Line-9"></path>
                        <path d="M206.349665,0.23125 L206.349665,1.77291667" id="Line-8"></path>
                        <path d="M197.45925,0.23125 L197.45925,1.77291667" id="Line-7"></path>
                        <path d="M189.838895,0.23125 L189.838895,1.77291667" id="Line-6"></path>
                        <path d="M180.948481,0.23125 L180.948481,1.77291667" id="Line-5"></path>
                        <path d="M172.058066,0.23125 L172.058066,1.77291667" id="Line-4"></path>
                        <path d="M164.437711,0.23125 L164.437711,1.77291667" id="Line-3"></path>
                        <path d="M155.547297,0.23125 L155.547297,1.77291667" id="Line-2"></path>
                        <path d="M0.823897231,2.3125 L358.014593,2.3125" id="Line"></path>
                    </g>
                </g>
            </g>
        </g>
    </g>
</svg>